<?xml version="1.0" encoding="UTF-8"?> <svg xmlns="http://www.w3.org/2000/svg" width="1920" height="1154" viewBox="0 0 1920 1154" fill="none"> <g clip-path="url(#clip0_2105_16212)"> <rect width="1920" height="1154" fill="#e3e3e3"></rect> <circle opacity="10" cx="1803" cy="1058" r="305" fill="url(#paint0_radial_2105_16212)"></circle> <circle opacity="0.6" cx="10.5" cy="482.5" r="217.5" fill="url(#paint1_radial_2105_16212)"></circle> <path opacity="0.3" d="M42.1997 502C41.331 502 40.4817 502.261 39.7595 502.751C39.0372 503.241 38.4744 503.938 38.1422 504.752C37.81 505.567 37.7235 506.463 37.8935 507.328C38.0634 508.192 38.4823 508.986 39.0971 509.609C39.7119 510.232 40.4949 510.656 41.3472 510.827C42.1994 510.998 43.0825 510.909 43.8848 510.57C44.6871 510.232 45.3724 509.66 45.8541 508.926C46.3358 508.193 46.5922 507.331 46.5908 506.449C46.5909 505.864 46.4772 505.285 46.2565 504.745C46.0357 504.205 45.7122 503.714 45.3043 503.301C44.8965 502.887 44.4124 502.56 43.8796 502.337C43.3469 502.114 42.7761 501.999 42.1997 502Z" fill="white"></path> <path opacity="0.3" d="M69.2661 559.918C71.6913 559.918 73.6573 557.923 73.6573 555.463C73.6573 553.002 71.6913 551.007 69.2661 551.007C66.841 551.007 64.875 553.002 64.875 555.463C64.875 557.923 66.841 559.918 69.2661 559.918Z" fill="white"></path> <path opacity="0.3" d="M72.4223 502C71.5536 502 70.7043 502.261 69.9821 502.751C69.2598 503.241 68.697 503.938 68.3649 504.752C68.0327 505.567 67.9461 506.463 68.1161 507.328C68.2861 508.192 68.705 508.986 69.3197 509.609C69.9345 510.232 70.7176 510.656 71.5698 510.827C72.422 510.998 73.3051 510.909 74.1074 510.57C74.9096 510.232 75.5949 509.66 76.0766 508.926C76.5583 508.193 76.8147 507.331 76.8134 506.449C76.8116 505.268 76.3482 504.137 75.5249 503.303C74.7016 502.469 73.5857 502 72.4223 502Z" fill="white"></path> <path opacity="0.3" d="M54.1411 576.551C53.2726 576.551 52.4236 576.812 51.7015 577.302C50.9794 577.791 50.4166 578.487 50.0842 579.301C49.7519 580.116 49.6649 581.011 49.8344 581.876C50.0038 582.74 50.422 583.534 51.0361 584.157C51.6502 584.78 52.4326 585.205 53.2844 585.377C54.1362 585.549 55.0191 585.46 55.8215 585.123C56.6238 584.786 57.3096 584.215 57.7921 583.482C58.2746 582.749 58.5321 581.888 58.5321 581.007C58.5321 579.825 58.0695 578.691 57.246 577.856C56.4225 577.02 55.3057 576.551 54.1411 576.551Z" fill="white"></path> <path opacity="0.3" d="M46.5859 630.013C46.5859 630.895 46.8437 631.757 47.3265 632.49C47.8093 633.223 48.4954 633.794 49.2982 634.131C50.101 634.468 50.9842 634.556 51.8362 634.383C52.6882 634.211 53.4706 633.786 54.0844 633.162C54.6983 632.538 55.116 631.743 55.2846 630.879C55.4533 630.014 55.3654 629.118 55.032 628.304C54.6986 627.489 54.1348 626.794 53.4118 626.305C52.6888 625.816 51.8391 625.556 50.9704 625.558C50.394 625.558 49.8234 625.673 49.291 625.897C48.7586 626.121 48.275 626.449 47.8677 626.863C47.4605 627.277 47.1377 627.768 46.9178 628.309C46.6978 628.849 46.5851 629.429 46.5859 630.013Z" fill="white"></path> <path opacity="0.3" d="M58.5352 653.483C58.5352 654.364 58.7927 655.226 59.2752 655.959C59.7577 656.691 60.4435 657.262 61.2459 657.6C62.0482 657.937 62.9312 658.025 63.783 657.853C64.6348 657.681 65.4172 657.257 66.0313 656.634C66.6454 656.011 67.0636 655.217 67.233 654.352C67.4025 653.488 67.3155 652.592 66.9832 651.778C66.6508 650.964 66.088 650.268 65.3659 649.778C64.6438 649.289 63.7948 649.027 62.9263 649.027C61.7617 649.027 60.6448 649.497 59.8213 650.332C58.9978 651.168 58.5352 652.301 58.5352 653.483Z" fill="white"></path> <path opacity="0.3" d="M78.0434 683.483C80.4685 683.483 82.4345 681.488 82.4345 679.027C82.4345 676.566 80.4685 674.571 78.0434 674.571C75.6183 674.571 73.6523 676.566 73.6523 679.027C73.6523 681.488 75.6183 683.483 78.0434 683.483Z" fill="white"></path> <path opacity="0.3" d="M66.0943 608.925C68.5194 608.925 70.4854 606.93 70.4854 604.469C70.4854 602.009 68.5194 600.014 66.0943 600.014C63.6691 600.014 61.7031 602.009 61.7031 604.469C61.7031 606.93 63.6691 608.925 66.0943 608.925Z" fill="white"></path> <path opacity="0.3" d="M110.223 581.007C110.223 581.888 110.48 582.749 110.963 583.482C111.445 584.215 112.131 584.786 112.933 585.123C113.736 585.46 114.619 585.549 115.47 585.377C116.322 585.205 117.105 584.78 117.719 584.157C118.333 583.534 118.751 582.74 118.921 581.876C119.09 581.011 119.003 580.116 118.671 579.301C118.338 578.487 117.775 577.791 117.053 577.302C116.331 576.812 115.482 576.551 114.614 576.551C114.037 576.551 113.466 576.666 112.933 576.89C112.401 577.114 111.917 577.442 111.509 577.856C111.101 578.27 110.778 578.761 110.557 579.301C110.336 579.842 110.223 580.421 110.223 581.007Z" fill="white"></path> <path opacity="0.3" d="M99.5044 559.918C101.93 559.918 103.896 557.923 103.896 555.463C103.896 553.002 101.93 551.007 99.5044 551.007C97.0793 551.007 95.1133 553.002 95.1133 555.463C95.1133 557.923 97.0793 559.918 99.5044 559.918Z" fill="white"></path> <path opacity="0.3" d="M91.9336 604.469C91.9336 605.351 92.1911 606.212 92.6736 606.945C93.1561 607.678 93.8419 608.249 94.6443 608.586C95.4467 608.923 96.3296 609.012 97.1814 608.84C98.0332 608.668 98.8156 608.243 99.4297 607.62C100.044 606.997 100.462 606.203 100.631 605.339C100.801 604.474 100.714 603.579 100.382 602.764C100.049 601.95 99.4864 601.254 98.7643 600.765C98.0422 600.275 97.1932 600.014 96.3247 600.014C95.7481 600.014 95.1771 600.129 94.6443 600.353C94.1116 600.577 93.6275 600.905 93.2197 601.319C92.812 601.733 92.4885 602.224 92.2679 602.764C92.0472 603.305 91.9336 603.884 91.9336 604.469Z" fill="white"></path> <path opacity="0.3" d="M107.051 630.013C107.051 630.895 107.308 631.756 107.791 632.489C108.273 633.222 108.959 633.793 109.761 634.13C110.564 634.467 111.447 634.555 112.299 634.384C113.15 634.212 113.933 633.787 114.547 633.164C115.161 632.541 115.579 631.747 115.749 630.883C115.918 630.018 115.831 629.122 115.499 628.308C115.166 627.494 114.604 626.798 113.881 626.309C113.159 625.819 112.31 625.558 111.442 625.558C110.277 625.558 109.16 626.027 108.337 626.863C107.513 627.698 107.051 628.832 107.051 630.013Z" fill="white"></path> <path opacity="0.3" d="M93.1607 649.027C92.2922 649.027 91.4432 649.289 90.7211 649.778C89.999 650.268 89.4361 650.964 89.1038 651.778C88.7714 652.592 88.6845 653.488 88.8539 654.352C89.0233 655.217 89.4416 656.011 90.0557 656.634C90.6698 657.257 91.4522 657.681 92.304 657.853C93.1558 658.025 94.0387 657.937 94.8411 657.6C95.6434 657.262 96.3292 656.691 96.8117 655.959C97.2943 655.226 97.5518 654.364 97.5518 653.483C97.5518 652.301 97.0892 651.168 96.2657 650.332C95.4422 649.497 94.3253 649.027 93.1607 649.027Z" fill="white"></path> <path opacity="0.3" d="M76.8242 630.013C76.8242 630.895 77.0817 631.756 77.5642 632.489C78.0467 633.222 78.7326 633.793 79.5349 634.13C80.3373 634.467 81.2202 634.555 82.072 634.384C82.9238 634.212 83.7062 633.787 84.3204 633.164C84.9345 632.541 85.3527 631.747 85.5221 630.883C85.6915 630.018 85.6046 629.122 85.2722 628.308C84.9399 627.494 84.377 626.798 83.6549 626.309C82.9328 625.819 82.0838 625.558 81.2153 625.558C80.0507 625.558 78.9338 626.027 78.1103 626.863C77.2868 627.698 76.8242 628.832 76.8242 630.013Z" fill="white"></path> <path opacity="0.3" d="M79.9844 581.007C79.9844 581.888 80.2419 582.749 80.7244 583.482C81.2069 584.215 81.8927 584.786 82.6951 585.123C83.4975 585.46 84.3804 585.549 85.2322 585.377C86.084 585.205 86.8664 584.78 87.4805 584.157C88.0946 583.534 88.5128 582.74 88.6823 581.876C88.8517 581.011 88.7647 580.116 88.4324 579.301C88.1 578.487 87.5372 577.791 86.8151 577.302C86.093 576.812 85.244 576.551 84.3755 576.551C83.2109 576.551 82.094 577.02 81.2705 577.856C80.447 578.691 79.9844 579.825 79.9844 581.007Z" fill="white"></path> <path opacity="0.3" d="M87.5396 527.545C86.6708 527.545 85.8215 527.806 85.0993 528.296C84.377 528.786 83.8142 529.483 83.482 530.297C83.1499 531.112 83.0633 532.008 83.2333 532.873C83.4033 533.737 83.8222 534.531 84.4369 535.154C85.0517 535.777 85.8348 536.201 86.687 536.372C87.5393 536.543 88.4224 536.454 89.2246 536.115C90.0269 535.777 90.7122 535.205 91.1939 534.471C91.6756 533.738 91.932 532.875 91.9307 531.994C91.9289 530.813 91.4655 529.682 90.6422 528.848C89.8189 528.013 88.703 527.545 87.5396 527.545Z" fill="white"></path> <path opacity="0.3" d="M103.891 679.027C103.891 679.908 104.148 680.77 104.631 681.503C105.113 682.235 105.799 682.806 106.601 683.144C107.404 683.481 108.287 683.569 109.138 683.397C109.99 683.225 110.773 682.801 111.387 682.178C112.001 681.555 112.419 680.761 112.589 679.896C112.758 679.032 112.671 678.136 112.339 677.322C112.006 676.508 111.443 675.812 110.721 675.322C109.999 674.833 109.15 674.571 108.282 674.571C107.117 674.571 106 675.041 105.177 675.876C104.353 676.712 103.891 677.845 103.891 679.027Z" fill="white"></path> <path opacity="0.3" d="M-3.15574 536.449C-0.730591 536.449 1.23539 534.454 1.23539 531.993C1.23539 529.532 -0.730591 527.537 -3.15574 527.537C-5.5809 527.537 -7.54688 529.532 -7.54688 531.993C-7.54688 534.454 -5.5809 536.449 -3.15574 536.449Z" fill="white"></path> <path opacity="0.3" d="M2.45754 649.027C1.58905 649.027 0.740081 649.289 0.0179634 649.778C-0.704154 650.268 -1.26698 650.964 -1.59933 651.778C-1.93169 652.592 -2.01865 653.488 -1.84922 654.352C-1.67979 655.217 -1.26157 656.011 -0.647456 656.634C-0.0333459 657.257 0.749072 657.681 1.60087 657.853C2.45266 658.025 3.33558 657.937 4.13795 657.6C4.94032 657.262 5.62612 656.691 6.10862 655.959C6.59113 655.226 6.84867 654.364 6.84867 653.483C6.84867 652.898 6.73508 652.319 6.51441 651.778C6.29373 651.237 5.97029 650.746 5.56253 650.332C5.15478 649.919 4.67071 649.59 4.13795 649.367C3.60519 649.143 3.03419 649.027 2.45754 649.027Z" fill="white"></path> <path opacity="0.3" d="M5.62941 608.925C8.05456 608.925 10.0205 606.93 10.0205 604.469C10.0205 602.009 8.05456 600.014 5.62941 600.014C3.20425 600.014 1.23828 602.009 1.23828 604.469C1.23828 606.93 3.20425 608.925 5.62941 608.925Z" fill="white"></path> <path opacity="0.3" d="M16.3477 630.013C16.3477 630.895 16.6052 631.756 17.0877 632.489C17.5702 633.222 18.256 633.793 19.0583 634.13C19.8607 634.467 20.7436 634.556 21.5954 634.384C22.4472 634.212 23.2296 633.787 23.8437 633.164C24.4578 632.541 24.876 631.747 25.0454 630.883C25.2148 630.018 25.1279 629.122 24.7956 628.308C24.4632 627.494 23.9004 626.798 23.1783 626.309C22.4562 625.819 21.6072 625.558 20.7387 625.558C19.5741 625.558 18.4573 626.027 17.6338 626.863C16.8103 627.698 16.3477 628.832 16.3477 630.013Z" fill="white"></path> <path opacity="0.3" d="M27.0825 527.545C26.2138 527.545 25.3645 527.806 24.6422 528.296C23.92 528.786 23.3572 529.483 23.025 530.297C22.6929 531.112 22.6063 532.008 22.7763 532.872C22.9463 533.737 23.3651 534.531 23.9799 535.154C24.5947 535.777 25.3778 536.201 26.23 536.372C27.0822 536.543 27.9653 536.454 28.7676 536.115C29.5698 535.777 30.2552 535.205 30.7369 534.471C31.2186 533.738 31.475 532.875 31.4737 531.994C31.4737 531.409 31.36 530.83 31.1393 530.29C30.9185 529.75 30.595 529.259 30.1871 528.846C29.7793 528.432 29.2951 528.105 28.7624 527.882C28.2297 527.658 27.6589 527.544 27.0825 527.545Z" fill="white"></path> <path opacity="0.3" d="M19.5195 581.007C19.5195 581.888 19.7771 582.749 20.2596 583.482C20.7421 584.215 21.4279 584.786 22.2303 585.123C23.0326 585.46 23.9155 585.549 24.7673 585.377C25.6191 585.205 26.4016 584.78 27.0157 584.157C27.6298 583.534 28.048 582.74 28.2174 581.876C28.3868 581.011 28.2999 580.116 27.9675 579.301C27.6352 578.487 27.0724 577.791 26.3502 577.302C25.6281 576.812 24.7791 576.551 23.9107 576.551C22.7461 576.551 21.6291 577.02 20.8056 577.856C19.9822 578.691 19.5195 579.825 19.5195 581.007Z" fill="white"></path> <path opacity="0.3" d="M8.78566 559.918C11.2108 559.918 13.1768 557.923 13.1768 555.463C13.1768 553.002 11.2108 551.007 8.78566 551.007C6.36051 551.007 4.39453 553.002 4.39453 555.463C4.39453 557.923 6.36051 559.918 8.78566 559.918Z" fill="white"></path> <path opacity="0.3" d="M35.8677 608.925C38.2928 608.925 40.2588 606.93 40.2588 604.469C40.2588 602.009 38.2928 600.014 35.8677 600.014C33.4425 600.014 31.4766 602.009 31.4766 604.469C31.4766 606.93 33.4425 608.925 35.8677 608.925Z" fill="white"></path> <path opacity="0.3" d="M32.6958 649.027C31.8273 649.027 30.9784 649.289 30.2562 649.778C29.5341 650.268 28.9713 650.964 28.6389 651.778C28.3066 652.592 28.2196 653.488 28.3891 654.352C28.5585 655.217 28.9767 656.011 29.5908 656.634C30.2049 657.257 30.9874 657.681 31.8392 657.853C32.691 658.025 33.5739 657.937 34.3762 657.6C35.1786 657.262 35.8644 656.691 36.3469 655.959C36.8294 655.226 37.0869 654.364 37.0869 653.483C37.0869 652.301 36.6243 651.168 35.8008 650.332C34.9773 649.497 33.8604 649.027 32.6958 649.027Z" fill="white"></path> <path opacity="0.3" d="M39.0278 559.918C41.453 559.918 43.419 557.923 43.419 555.463C43.419 553.002 41.453 551.007 39.0278 551.007C36.6027 551.007 34.6367 553.002 34.6367 555.463C34.6367 557.923 36.6027 559.918 39.0278 559.918Z" fill="white"></path> <path opacity="0.3" d="M11.9927 502C11.1239 502 10.2747 502.261 9.55242 502.751C8.83016 503.241 8.26733 503.938 7.93517 504.752C7.60302 505.567 7.51646 506.463 7.68643 507.328C7.85641 508.192 8.27529 508.986 8.89007 509.609C9.50485 510.232 10.2879 510.656 11.1401 510.827C11.9924 510.998 12.8755 510.909 13.6778 510.57C14.48 510.232 15.1653 509.66 15.647 508.926C16.1287 508.193 16.3851 507.331 16.3838 506.449C16.3838 505.864 16.2702 505.285 16.0494 504.745C15.8287 504.205 15.5051 503.714 15.0973 503.301C14.6894 502.887 14.2053 502.56 13.6726 502.337C13.1399 502.114 12.569 501.999 11.9927 502Z" fill="white"></path> <path opacity="0.3" d="M17.5786 683.483C20.0038 683.483 21.9698 681.488 21.9698 679.027C21.9698 676.566 20.0038 674.571 17.5786 674.571C15.1535 674.571 13.1875 676.566 13.1875 679.027C13.1875 681.488 15.1535 683.483 17.5786 683.483Z" fill="white"></path> <path opacity="0.3" d="M117.778 536.449C120.203 536.449 122.169 534.454 122.169 531.993C122.169 529.532 120.203 527.537 117.778 527.537C115.353 527.537 113.387 529.532 113.387 531.993C113.387 534.454 115.353 536.449 117.778 536.449Z" fill="white"></path> <path opacity="0.3" d="M148.012 536.449C148.881 536.449 149.73 536.187 150.452 535.698C151.174 535.208 151.737 534.512 152.069 533.698C152.401 532.884 152.488 531.988 152.319 531.124C152.15 530.259 151.731 529.465 151.117 528.842C150.503 528.219 149.721 527.795 148.869 527.623C148.017 527.451 147.134 527.539 146.332 527.876C145.529 528.214 144.844 528.785 144.361 529.517C143.879 530.25 143.621 531.112 143.621 531.993C143.621 533.175 144.084 534.308 144.907 535.144C145.731 535.979 146.848 536.449 148.012 536.449Z" fill="white"></path> <path opacity="0.3" d="M138.516 683.483C140.941 683.483 142.907 681.488 142.907 679.027C142.907 676.566 140.941 674.571 138.516 674.571C136.091 674.571 134.125 676.566 134.125 679.027C134.125 681.488 136.091 683.483 138.516 683.483Z" fill="white"></path> <path opacity="0.3" d="M137.289 630.013C137.289 630.895 137.547 631.756 138.029 632.489C138.512 633.222 139.197 633.793 140 634.13C140.802 634.467 141.685 634.555 142.537 634.384C143.389 634.212 144.171 633.787 144.785 633.164C145.399 632.541 145.818 631.747 145.987 630.883C146.156 630.018 146.069 629.122 145.737 628.308C145.405 627.494 144.842 626.798 144.12 626.309C143.398 625.819 142.549 625.558 141.68 625.558C140.516 625.558 139.399 626.027 138.575 626.863C137.752 627.698 137.289 628.832 137.289 630.013Z" fill="white"></path> <path opacity="0.3" d="M140.453 581.007C140.453 581.888 140.711 582.749 141.193 583.482C141.676 584.215 142.361 584.786 143.164 585.123C143.966 585.46 144.849 585.549 145.701 585.377C146.553 585.205 147.335 584.78 147.949 584.157C148.563 583.534 148.982 582.74 149.151 581.876C149.32 581.011 149.233 580.116 148.901 579.301C148.569 578.487 148.006 577.791 147.284 577.302C146.562 576.812 145.713 576.551 144.844 576.551C143.68 576.551 142.563 577.02 141.739 577.856C140.916 578.691 140.453 579.825 140.453 581.007Z" fill="white"></path> <path opacity="0.3" d="M123.399 649.027C122.53 649.027 121.681 649.289 120.959 649.778C120.237 650.268 119.674 650.964 119.342 651.778C119.01 652.592 118.923 653.488 119.092 654.352C119.262 655.217 119.68 656.011 120.294 656.634C120.908 657.257 121.69 657.681 122.542 657.853C123.394 658.025 124.277 657.937 125.079 657.6C125.882 657.263 126.567 656.691 127.05 655.959C127.532 655.226 127.79 654.364 127.79 653.483C127.79 652.898 127.676 652.319 127.456 651.778C127.235 651.237 126.912 650.746 126.504 650.332C126.096 649.919 125.612 649.59 125.079 649.367C124.547 649.143 123.976 649.027 123.399 649.027Z" fill="white"></path> <path opacity="0.3" d="M126.563 608.925C128.988 608.925 130.954 606.93 130.954 604.469C130.954 602.009 128.988 600.014 126.563 600.014C124.138 600.014 122.172 602.009 122.172 604.469C122.172 606.93 124.138 608.925 126.563 608.925Z" fill="white"></path> <path opacity="0.3" d="M129.723 559.918C132.148 559.918 134.114 557.923 134.114 555.463C134.114 553.002 132.148 551.007 129.723 551.007C127.298 551.007 125.332 553.002 125.332 555.463C125.332 557.923 127.298 559.918 129.723 559.918Z" fill="white"></path> <path opacity="0.3" d="M188.251 653.483C188.251 652.602 187.993 651.74 187.511 651.008C187.028 650.275 186.343 649.704 185.54 649.367C184.738 649.029 183.855 648.941 183.003 649.113C182.151 649.285 181.369 649.709 180.755 650.332C180.141 650.956 179.723 651.75 179.553 652.614C179.384 653.478 179.471 654.374 179.803 655.188C180.135 656.002 180.698 656.698 181.42 657.188C182.142 657.678 182.991 657.939 183.86 657.939C185.024 657.939 186.141 657.469 186.965 656.634C187.788 655.798 188.251 654.665 188.251 653.483Z" fill="white"></path> <path opacity="0.3" d="M195.813 732.49C198.238 732.49 200.204 730.495 200.204 728.034C200.204 725.573 198.238 723.578 195.813 723.578C193.388 723.578 191.422 725.573 191.422 728.034C191.422 730.495 193.388 732.49 195.813 732.49Z" fill="white"></path> <path opacity="0.3" d="M187.036 608.925C189.461 608.925 191.427 606.93 191.427 604.469C191.427 602.009 189.461 600.014 187.036 600.014C184.611 600.014 182.645 602.009 182.645 604.469C182.645 606.93 184.611 608.925 187.036 608.925Z" fill="white"></path> <path opacity="0.3" d="M206.548 630.013C206.548 629.132 206.29 628.271 205.808 627.538C205.325 626.805 204.64 626.234 203.837 625.897C203.035 625.56 202.152 625.471 201.3 625.643C200.448 625.815 199.666 626.24 199.052 626.863C198.438 627.486 198.019 628.28 197.85 629.144C197.681 630.008 197.768 630.904 198.1 631.719C198.432 632.533 198.995 633.229 199.717 633.718C200.439 634.208 201.288 634.469 202.157 634.469C203.321 634.467 204.437 633.997 205.26 633.162C206.083 632.327 206.546 631.195 206.548 630.013Z" fill="white"></path> <path opacity="0.3" d="M198.977 683.483C201.402 683.483 203.368 681.488 203.368 679.027C203.368 676.566 201.402 674.571 198.977 674.571C196.552 674.571 194.586 676.566 194.586 679.027C194.586 681.488 196.552 683.483 198.977 683.483Z" fill="white"></path> <path opacity="0.3" d="M210.93 706.946C211.799 706.946 212.648 706.684 213.37 706.195C214.092 705.705 214.655 705.009 214.987 704.195C215.319 703.381 215.406 702.485 215.237 701.621C215.067 700.756 214.649 699.962 214.035 699.339C213.421 698.716 212.639 698.292 211.787 698.12C210.935 697.948 210.052 698.036 209.25 698.373C208.447 698.711 207.762 699.282 207.279 700.014C206.797 700.747 206.539 701.609 206.539 702.49C206.539 703.672 207.002 704.805 207.825 705.641C208.649 706.476 209.766 706.946 210.93 706.946Z" fill="white"></path> <path opacity="0.3" d="M212.867 604.469C212.866 605.51 213.224 606.518 213.879 607.318C214.534 608.119 215.445 608.661 216.454 608.85C215.56 606.514 214.626 604.208 213.652 601.932C213.139 602.675 212.865 603.561 212.867 604.469Z" fill="white"></path> <path opacity="0.3" d="M209.703 653.483C209.703 654.364 209.961 655.226 210.443 655.959C210.926 656.691 211.611 657.263 212.414 657.6C213.216 657.937 214.099 658.025 214.951 657.853C215.803 657.681 216.585 657.257 217.199 656.634C217.813 656.011 218.232 655.217 218.401 654.352C218.57 653.488 218.483 652.592 218.151 651.778C217.819 650.964 217.256 650.268 216.534 649.778C215.812 649.289 214.963 649.027 214.094 649.027C212.93 649.027 211.813 649.497 210.989 650.332C210.166 651.168 209.703 652.301 209.703 653.483Z" fill="white"></path> <path opacity="0.3" d="M224.82 679.027C224.822 679.934 225.097 680.819 225.607 681.564C226.117 682.309 226.839 682.879 227.676 683.197C227.851 680.394 227.958 677.578 227.998 674.748C227.083 675.015 226.278 675.577 225.705 676.349C225.131 677.121 224.821 678.061 224.82 679.027Z" fill="white"></path> <path opacity="0.3" d="M173.13 679.027C173.13 678.146 172.872 677.284 172.39 676.552C171.907 675.819 171.222 675.248 170.419 674.91C169.617 674.573 168.734 674.485 167.882 674.657C167.03 674.829 166.248 675.253 165.634 675.876C165.02 676.5 164.601 677.293 164.432 678.158C164.263 679.022 164.35 679.918 164.682 680.732C165.014 681.546 165.577 682.242 166.299 682.732C167.021 683.221 167.87 683.483 168.739 683.483C169.903 683.483 171.02 683.013 171.844 682.178C172.667 681.342 173.13 680.209 173.13 679.027Z" fill="white"></path> <path opacity="0.3" d="M185.087 702.489C185.087 701.608 184.829 700.746 184.347 700.013C183.864 699.281 183.179 698.71 182.376 698.372C181.574 698.035 180.691 697.947 179.839 698.119C178.987 698.291 178.205 698.715 177.591 699.338C176.977 699.961 176.558 700.755 176.389 701.62C176.22 702.484 176.307 703.38 176.639 704.194C176.971 705.008 177.534 705.704 178.256 706.194C178.978 706.683 179.827 706.945 180.696 706.945C181.86 706.945 182.977 706.475 183.801 705.64C184.624 704.804 185.087 703.671 185.087 702.489Z" fill="white"></path> <path opacity="0.3" d="M165.579 732.49C168.004 732.49 169.97 730.495 169.97 728.034C169.97 725.573 168.004 723.578 165.579 723.578C163.153 723.578 161.188 725.573 161.188 728.034C161.188 730.495 163.153 732.49 165.579 732.49Z" fill="white"></path> <path opacity="0.3" d="M159.961 559.918C162.387 559.918 164.353 557.923 164.353 555.463C164.353 553.002 162.387 551.007 159.961 551.007C157.536 551.007 155.57 553.002 155.57 555.463C155.57 557.923 157.536 559.918 159.961 559.918Z" fill="white"></path> <path opacity="0.3" d="M162.407 781.503C163.275 781.503 164.124 781.242 164.846 780.752C165.568 780.263 166.131 779.567 166.464 778.753C166.796 777.939 166.883 777.043 166.714 776.178C166.544 775.314 166.126 774.52 165.512 773.897C164.898 773.274 164.115 772.849 163.263 772.677C162.412 772.505 161.529 772.594 160.726 772.931C159.924 773.268 159.238 773.839 158.756 774.572C158.273 775.305 158.016 776.166 158.016 777.048C158.016 778.229 158.478 779.363 159.302 780.198C160.125 781.034 161.242 781.503 162.407 781.503Z" fill="white"></path> <path opacity="0.3" d="M177.532 755.958C178.4 755.958 179.249 755.697 179.971 755.207C180.693 754.718 181.256 754.022 181.589 753.208C181.921 752.394 182.008 751.498 181.839 750.633C181.669 749.769 181.251 748.975 180.637 748.352C180.023 747.729 179.24 747.304 178.388 747.133C177.537 746.961 176.654 747.049 175.851 747.386C175.049 747.723 174.363 748.294 173.881 749.027C173.398 749.76 173.141 750.621 173.141 751.503C173.141 752.684 173.603 753.818 174.427 754.653C175.25 755.489 176.367 755.958 177.532 755.958Z" fill="white"></path> <path opacity="0.3" d="M167.527 630.013C167.527 630.895 167.785 631.756 168.267 632.489C168.75 633.222 169.436 633.793 170.238 634.13C171.04 634.467 171.923 634.556 172.775 634.384C173.627 634.212 174.409 633.787 175.023 633.164C175.638 632.541 176.056 631.747 176.225 630.883C176.395 630.018 176.308 629.122 175.975 628.308C175.643 627.494 175.08 626.798 174.358 626.309C173.636 625.819 172.787 625.558 171.918 625.558C170.754 625.558 169.637 626.027 168.813 626.863C167.99 627.698 167.527 628.832 167.527 630.013Z" fill="white"></path> <path opacity="0.3" d="M175.071 585.462C175.939 585.462 176.788 585.201 177.51 584.711C178.233 584.222 178.795 583.526 179.128 582.712C179.46 581.898 179.547 581.002 179.378 580.137C179.208 579.273 178.79 578.479 178.176 577.856C177.562 577.233 176.779 576.808 175.927 576.636C175.076 576.464 174.193 576.553 173.39 576.89C172.588 577.227 171.902 577.798 171.42 578.531C170.937 579.264 170.68 580.125 170.68 581.007C170.68 582.188 171.142 583.322 171.966 584.157C172.789 584.993 173.906 585.462 175.071 585.462Z" fill="white"></path> <path opacity="0.3" d="M186.878 558.368L186.777 558.252L186.878 558.368Z" fill="white"></path> <path opacity="0.3" d="M50.2568 845.068C49.3974 845.073 48.5583 845.333 47.8433 845.817C47.1283 846.3 46.5689 846.986 46.2344 847.789C48.916 847.925 51.6311 847.996 54.3797 848C54.0725 847.141 53.512 846.399 52.7743 845.874C52.0366 845.349 51.1576 845.068 50.2568 845.068Z" fill="white"></path> <path opacity="0.3" d="M57.8135 800.51C57.8135 799.629 57.556 798.768 57.0735 798.035C56.591 797.302 55.9052 796.731 55.1028 796.394C54.3004 796.057 53.4175 795.968 52.5657 796.14C51.7139 796.312 50.9315 796.737 50.3174 797.36C49.7033 797.983 49.2851 798.777 49.1156 799.641C48.9462 800.506 49.0332 801.401 49.3655 802.216C49.6979 803.03 50.2607 803.726 50.9828 804.215C51.7049 804.705 52.5539 804.966 53.4224 804.966C54.587 804.966 55.7039 804.497 56.5274 803.661C57.3509 802.826 57.8135 801.692 57.8135 800.51Z" fill="white"></path> <path opacity="0.3" d="M80.4952 845.068C79.8906 845.067 79.2923 845.194 78.7384 845.44C78.1845 845.686 77.6869 846.046 77.2773 846.497C79.1008 846.259 80.9109 845.98 82.7142 845.681C82.0418 845.279 81.2755 845.067 80.4952 845.068Z" fill="white"></path> <path opacity="0.3" d="M207.745 747.047C206.646 747.062 205.593 747.494 204.794 748.259C203.995 749.024 203.508 750.066 203.429 751.178C203.351 752.29 203.687 753.391 204.37 754.264C205.054 755.137 206.036 755.717 207.121 755.89C208.462 753.428 209.722 750.934 210.902 748.407C210.493 747.977 210.002 747.634 209.46 747.401C208.917 747.167 208.334 747.047 207.745 747.047Z" fill="white"></path> <path opacity="0.3" d="M174.352 796.055C173.187 796.055 172.071 796.524 171.247 797.36C170.424 798.195 169.961 799.329 169.961 800.51C169.961 801.341 170.193 802.155 170.631 802.857C172.754 800.912 174.835 798.914 176.873 796.864C176.136 796.334 175.255 796.051 174.352 796.055Z" fill="white"></path> <path opacity="0.3" d="M192.634 772.592C191.636 772.59 190.668 772.934 189.889 773.566C189.11 774.198 188.566 775.081 188.348 776.069C188.13 777.056 188.251 778.09 188.69 778.999C189.129 779.908 189.86 780.638 190.763 781.068C192.551 778.8 194.272 776.478 195.925 774.102C195.514 773.627 195.008 773.246 194.44 772.986C193.873 772.725 193.257 772.591 192.634 772.592Z" fill="white"></path> <path opacity="0.3" d="M200.918 581.006C200.918 582.188 201.381 583.322 202.204 584.157C203.028 584.993 204.144 585.462 205.309 585.462H205.537C204.263 583.195 202.938 580.945 201.562 578.714C201.145 579.404 200.923 580.197 200.918 581.006Z" fill="white"></path> <path opacity="0.3" d="M57.3169 536.449C59.7421 536.449 61.708 534.454 61.708 531.993C61.708 529.532 59.7421 527.537 57.3169 527.537C54.8917 527.537 52.9258 529.532 52.9258 531.993C52.9258 534.454 54.8917 536.449 57.3169 536.449Z" fill="white"></path> <path opacity="0.3" d="M98.2656 506.45C98.2656 507.631 98.7282 508.765 99.5517 509.6C100.375 510.436 101.492 510.905 102.657 510.905C103.821 510.905 104.938 510.436 105.762 509.6C106.585 508.765 107.048 507.631 107.048 506.45C107.05 505.678 106.851 504.92 106.471 504.252C104.534 503.633 102.57 503.062 100.605 502.518C99.9007 502.896 99.3108 503.462 98.8987 504.155C98.4865 504.847 98.2677 505.64 98.2656 506.45Z" fill="white"></path> <path opacity="0.3" d="M156.797 608.925C159.223 608.925 161.189 606.93 161.189 604.469C161.189 602.009 159.223 600.014 156.797 600.014C154.372 600.014 152.406 602.009 152.406 604.469C152.406 606.93 154.372 608.925 156.797 608.925Z" fill="white"></path> <path opacity="0.3" d="M33.9073 702.489C33.9073 701.607 33.6495 700.746 33.1667 700.013C32.6839 699.28 31.9977 698.709 31.195 698.372C30.3922 698.035 29.509 697.947 28.657 698.119C27.805 698.292 27.0226 698.717 26.4088 699.341C25.7949 699.965 25.3772 700.759 25.2086 701.624C25.0399 702.489 25.1278 703.385 25.4612 704.199C25.7946 705.013 26.3584 705.708 27.0814 706.197C27.8044 706.686 28.6541 706.946 29.5228 706.945C30.0992 706.945 30.6698 706.829 31.2022 706.605C31.7346 706.381 32.2182 706.053 32.6255 705.639C33.0327 705.225 33.3555 704.734 33.5754 704.194C33.7954 703.653 33.9081 703.074 33.9073 702.489Z" fill="white"></path> <path opacity="0.3" d="M45.8643 777.048C45.8643 776.166 45.6068 775.305 45.1242 774.572C44.6417 773.839 43.9559 773.268 43.1536 772.931C42.3512 772.594 41.4683 772.505 40.6165 772.677C39.7647 772.849 38.9823 773.274 38.3682 773.897C37.7541 774.52 37.3358 775.314 37.1664 776.178C36.997 777.043 37.0839 777.939 37.4163 778.753C37.7486 779.567 38.3115 780.263 39.0336 780.752C39.7557 781.242 40.6047 781.503 41.4732 781.503C42.0498 781.503 42.6208 781.388 43.1536 781.164C43.6863 780.94 44.1704 780.612 44.5782 780.198C44.9859 779.785 45.3094 779.293 45.53 778.753C45.7507 778.212 45.8643 777.633 45.8643 777.048Z" fill="white"></path> <path opacity="0.3" d="M71.7036 781.503C74.1288 781.503 76.0948 779.508 76.0948 777.048C76.0948 774.587 74.1288 772.592 71.7036 772.592C69.2785 772.592 67.3125 774.587 67.3125 777.048C67.3125 779.508 69.2785 781.503 71.7036 781.503Z" fill="white"></path> <path opacity="0.3" d="M44.6333 732.49C47.0585 732.49 49.0244 730.495 49.0244 728.034C49.0244 725.573 47.0585 723.578 44.6333 723.578C42.2082 723.578 40.2422 725.573 40.2422 728.034C40.2422 730.495 42.2082 732.49 44.6333 732.49Z" fill="white"></path> <path opacity="0.3" d="M38.3013 830.509C39.1698 830.509 40.0187 830.248 40.7409 829.758C41.463 829.269 42.0258 828.573 42.3582 827.759C42.6905 826.944 42.7775 826.048 42.608 825.184C42.4386 824.32 42.0204 823.526 41.4063 822.903C40.7922 822.28 40.0097 821.855 39.1579 821.683C38.3061 821.511 37.4233 821.6 36.6209 821.937C35.8185 822.274 35.1327 822.845 34.6502 823.578C34.1677 824.311 33.9102 825.172 33.9102 826.053C33.9102 827.235 34.3728 828.369 35.1963 829.204C36.0198 830.04 37.1367 830.509 38.3013 830.509Z" fill="white"></path> <path opacity="0.3" d="M68.5396 830.509C69.4081 830.509 70.257 830.248 70.9792 829.758C71.7013 829.269 72.2641 828.573 72.5964 827.759C72.9288 826.944 73.0158 826.048 72.8463 825.184C72.6769 824.32 72.2587 823.526 71.6446 822.903C71.0305 822.28 70.248 821.855 69.3962 821.683C68.5444 821.511 67.6615 821.6 66.8592 821.937C66.0568 822.274 65.371 822.845 64.8885 823.578C64.406 824.311 64.1484 825.172 64.1484 826.053C64.1484 827.235 64.6111 828.369 65.4346 829.204C66.2581 830.04 67.375 830.509 68.5396 830.509Z" fill="white"></path> <path opacity="0.3" d="M56.5982 755.958C57.4666 755.958 58.3156 755.697 59.0377 755.207C59.7599 754.718 60.3227 754.022 60.655 753.208C60.9874 752.394 61.0743 751.498 60.9049 750.633C60.7355 749.769 60.3173 748.975 59.7032 748.352C59.0891 747.729 58.3066 747.304 57.4548 747.133C56.603 746.961 55.7201 747.049 54.9178 747.386C54.1154 747.723 53.4296 748.294 52.9471 749.027C52.4646 749.76 52.207 750.621 52.207 751.503C52.207 752.684 52.6697 753.818 53.4931 754.653C54.3166 755.489 55.4336 755.958 56.5982 755.958Z" fill="white"></path> <path opacity="0.3" d="M64.1455 702.49C64.1455 701.609 63.888 700.747 63.4055 700.014C62.923 699.282 62.2372 698.711 61.4348 698.373C60.6324 698.036 59.7496 697.948 58.8978 698.12C58.046 698.292 57.2635 698.716 56.6494 699.339C56.0353 699.962 55.6171 700.756 55.4477 701.621C55.2782 702.485 55.3652 703.381 55.6975 704.195C56.0299 705.009 56.5927 705.705 57.3148 706.195C58.037 706.684 58.8859 706.946 59.7544 706.946C60.919 706.946 62.0359 706.476 62.8594 705.641C63.6829 704.805 64.1455 703.672 64.1455 702.49Z" fill="white"></path> <path opacity="0.3" d="M52.2119 679.027C52.2119 678.146 51.9544 677.284 51.4719 676.552C50.9894 675.819 50.3036 675.248 49.5012 674.91C48.6989 674.573 47.8159 674.485 46.9641 674.657C46.1124 674.829 45.3299 675.253 44.7158 675.876C44.1017 676.5 43.6835 677.293 43.5141 678.158C43.3446 679.022 43.4316 679.918 43.7639 680.732C44.0963 681.546 44.6591 682.242 45.3812 682.732C46.1034 683.221 46.9523 683.483 47.8208 683.483C48.9854 683.483 50.1023 683.013 50.9258 682.178C51.7493 681.342 52.2119 680.209 52.2119 679.027Z" fill="white"></path> <path opacity="0.3" d="M3.6807 702.49C3.6807 701.609 3.42316 700.747 2.94066 700.014C2.45815 699.282 1.77236 698.711 0.969981 698.373C0.167608 698.036 -0.715296 697.948 -1.56709 698.12C-2.41889 698.292 -3.20131 698.716 -3.81542 699.339C-4.42954 699.962 -4.84776 700.756 -5.01719 701.621C-5.18662 702.485 -5.09966 703.381 -4.7673 704.195C-4.43495 705.009 -3.87212 705.705 -3.15001 706.195C-2.42789 706.684 -1.57891 706.946 -0.710431 706.946C0.454169 706.946 1.57107 706.476 2.39456 705.641C3.21806 704.805 3.6807 703.672 3.6807 702.49Z" fill="white"></path> <path opacity="0.3" d="M0.508702 751.503C0.508702 750.621 0.251165 749.76 -0.231331 749.027C-0.713828 748.294 -1.39962 747.723 -2.20198 747.386C-3.00434 747.049 -3.88724 746.961 -4.73903 747.133C-5.59081 747.304 -6.37322 747.729 -6.98732 748.352C-7.60142 748.975 -8.01963 749.769 -8.18906 750.633C-8.35849 751.498 -8.27153 752.394 -7.93918 753.208C-7.60683 754.022 -7.04402 754.718 -6.32192 755.208C-5.59981 755.697 -4.75084 755.959 -3.88237 755.959C-2.71778 755.959 -1.6009 755.489 -0.777415 754.653C0.0460691 753.818 0.508702 752.684 0.508702 751.503Z" fill="white"></path> <path opacity="0.3" d="M8.07473 830.509C8.94321 830.509 9.79219 830.248 10.5143 829.758C11.2364 829.269 11.7992 828.573 12.1316 827.759C12.464 826.944 12.5509 826.048 12.3815 825.184C12.212 824.32 11.7938 823.526 11.1797 822.903C10.5656 822.28 9.78318 821.855 8.93139 821.683C8.07959 821.511 7.19669 821.6 6.39431 821.937C5.59194 822.274 4.90613 822.845 4.42363 823.578C3.94112 824.311 3.68359 825.172 3.68359 826.053C3.68359 827.235 4.14623 828.369 4.96973 829.204C5.79323 830.04 6.91013 830.509 8.07473 830.509Z" fill="white"></path> <path opacity="0.3" d="M158.013 653.483C158.013 652.602 157.755 651.74 157.273 651.008C156.79 650.275 156.104 649.704 155.302 649.367C154.5 649.029 153.617 648.941 152.765 649.113C151.913 649.285 151.131 649.709 150.517 650.332C149.902 650.956 149.484 651.75 149.315 652.614C149.145 653.478 149.232 654.374 149.565 655.188C149.897 656.002 150.46 656.698 151.182 657.188C151.904 657.678 152.753 657.939 153.622 657.939C154.786 657.939 155.903 657.469 156.727 656.634C157.55 655.798 158.013 654.665 158.013 653.483Z" fill="white"></path> <path opacity="0.3" d="M23.1997 804.966C24.0682 804.966 24.9172 804.705 25.6393 804.215C26.3614 803.726 26.9242 803.03 27.2566 802.216C27.5889 801.401 27.6759 800.506 27.5065 799.641C27.337 798.777 26.9188 797.983 26.3047 797.36C25.6906 796.737 24.9082 796.312 24.0564 796.14C23.2046 795.968 22.3217 796.057 21.5193 796.394C20.7169 796.731 20.0311 797.302 19.5486 798.035C19.0661 798.768 18.8086 799.629 18.8086 800.51C18.8077 801.096 18.9207 801.676 19.1411 802.217C19.3614 802.758 19.6848 803.249 20.0927 803.663C20.5007 804.077 20.9851 804.405 21.5183 804.629C22.0514 804.852 22.6228 804.967 23.1997 804.966Z" fill="white"></path> <path opacity="0.3" d="M11.2349 781.503C13.66 781.503 15.626 779.508 15.626 777.048C15.626 774.587 13.66 772.592 11.2349 772.592C8.80973 772.592 6.84375 774.587 6.84375 777.048C6.84375 779.508 8.80973 781.503 11.2349 781.503Z" fill="white"></path> <path opacity="0.3" d="M30.7548 751.503C30.7548 750.621 30.4973 749.76 30.0148 749.027C29.5323 748.294 28.8465 747.723 28.0441 747.386C27.2418 747.049 26.3589 746.961 25.5071 747.133C24.6553 747.304 23.8729 747.729 23.2588 748.352C22.6447 748.975 22.2265 749.769 22.057 750.633C21.8876 751.498 21.9746 752.394 22.3069 753.208C22.6393 754.022 23.2021 754.718 23.9242 755.208C24.6463 755.697 25.4953 755.959 26.3637 755.959C27.5283 755.959 28.6452 755.489 29.4687 754.653C30.2922 753.818 30.7548 752.684 30.7548 751.503Z" fill="white"></path> <path opacity="0.3" d="M14.4068 732.49C16.8319 732.49 18.7979 730.495 18.7979 728.034C18.7979 725.573 16.8319 723.578 14.4068 723.578C11.9816 723.578 10.0156 725.573 10.0156 728.034C10.0156 730.495 11.9816 732.49 14.4068 732.49Z" fill="white"></path> <path opacity="0.3" d="M135.34 732.49C137.765 732.49 139.731 730.495 139.731 728.034C139.731 725.573 137.765 723.578 135.34 723.578C132.915 723.578 130.949 725.573 130.949 728.034C130.949 730.495 132.915 732.49 135.34 732.49Z" fill="white"></path> <path opacity="0.3" d="M132.176 781.503C134.601 781.503 136.567 779.508 136.567 777.048C136.567 774.587 134.601 772.592 132.176 772.592C129.751 772.592 127.785 774.587 127.785 777.048C127.785 779.508 129.751 781.503 132.176 781.503Z" fill="white"></path> <path opacity="0.3" d="M129 830.509C129.869 830.509 130.718 830.248 131.44 829.758C132.162 829.269 132.725 828.573 133.057 827.759C133.39 826.944 133.477 826.048 133.307 825.184C133.138 824.32 132.72 823.526 132.105 822.903C131.491 822.28 130.709 821.855 129.857 821.683C129.005 821.511 128.122 821.6 127.32 821.937C126.518 822.274 125.832 822.845 125.349 823.578C124.867 824.311 124.609 825.172 124.609 826.053C124.609 827.235 125.072 828.369 125.896 829.204C126.719 830.04 127.836 830.509 129 830.509Z" fill="white"></path> <path opacity="0.3" d="M124.61 702.49C124.61 701.609 124.353 700.747 123.87 700.014C123.388 699.282 122.702 698.711 121.9 698.373C121.097 698.036 120.214 697.948 119.363 698.12C118.511 698.292 117.728 698.716 117.114 699.339C116.5 699.962 116.082 700.756 115.912 701.621C115.743 702.485 115.83 703.381 116.162 704.195C116.495 705.009 117.058 705.705 117.78 706.195C118.502 706.684 119.351 706.946 120.219 706.946C121.384 706.946 122.501 706.476 123.324 705.641C124.148 704.805 124.61 703.672 124.61 702.49Z" fill="white"></path> <path opacity="0.3" d="M74.8716 732.49C77.2967 732.49 79.2627 730.495 79.2627 728.034C79.2627 725.573 77.2967 723.578 74.8716 723.578C72.4464 723.578 70.4805 725.573 70.4805 728.034C70.4805 730.495 72.4464 732.49 74.8716 732.49Z" fill="white"></path> <path opacity="0.3" d="M154.849 702.49C154.849 701.609 154.591 700.747 154.109 700.014C153.626 699.282 152.94 698.711 152.138 698.373C151.336 698.036 150.453 697.948 149.601 698.12C148.749 698.292 147.967 698.716 147.353 699.339C146.738 699.962 146.32 700.756 146.151 701.621C145.981 702.485 146.068 703.381 146.401 704.195C146.733 705.009 147.296 705.705 148.018 706.195C148.74 706.684 149.589 706.946 150.458 706.946C151.622 706.946 152.739 706.476 153.563 705.641C154.386 704.805 154.849 703.672 154.849 702.49Z" fill="white"></path> <path opacity="0.3" d="M151.685 751.503C151.685 750.621 151.427 749.76 150.945 749.027C150.462 748.294 149.776 747.723 148.974 747.386C148.172 747.049 147.289 746.961 146.437 747.133C145.585 747.304 144.803 747.729 144.188 748.352C143.574 748.975 143.156 749.769 142.987 750.633C142.817 751.498 142.904 752.394 143.237 753.208C143.569 754.022 144.132 754.718 144.854 755.208C145.576 755.697 146.425 755.959 147.293 755.959C148.458 755.959 149.575 755.489 150.398 754.653C151.222 753.818 151.685 752.684 151.685 751.503Z" fill="white"></path> <path opacity="0.3" d="M144.133 804.966C145.002 804.966 145.851 804.705 146.573 804.215C147.295 803.726 147.858 803.03 148.19 802.216C148.523 801.401 148.61 800.506 148.44 799.641C148.271 798.777 147.852 797.983 147.238 797.36C146.624 796.737 145.842 796.312 144.99 796.14C144.138 795.968 143.255 796.057 142.453 796.394C141.651 796.731 140.965 797.302 140.482 798.035C140 798.768 139.742 799.629 139.742 800.51C139.742 801.692 140.205 802.826 141.028 803.661C141.852 804.497 142.969 804.966 144.133 804.966Z" fill="white"></path> <path opacity="0.3" d="M121.45 751.503C121.45 750.621 121.193 749.76 120.71 749.027C120.228 748.294 119.542 747.723 118.74 747.386C117.937 747.049 117.054 746.961 116.202 747.133C115.351 747.304 114.568 747.729 113.954 748.352C113.34 748.975 112.922 749.769 112.752 750.633C112.583 751.498 112.67 752.394 113.002 753.208C113.335 754.022 113.897 754.718 114.62 755.207C115.342 755.697 116.191 755.958 117.059 755.958C118.224 755.958 119.341 755.489 120.164 754.653C120.988 753.818 121.45 752.684 121.45 751.503Z" fill="white"></path> <path opacity="0.3" d="M91.2119 751.503C91.2119 750.621 90.9544 749.76 90.4719 749.027C89.9894 748.294 89.3036 747.723 88.5012 747.386C87.6989 747.049 86.816 746.961 85.9642 747.133C85.1124 747.304 84.3299 747.729 83.7158 748.352C83.1017 748.975 82.6835 749.769 82.5141 750.633C82.3446 751.498 82.4316 752.394 82.7639 753.208C83.0963 754.022 83.6591 754.718 84.3812 755.207C85.1034 755.697 85.9523 755.958 86.8208 755.958C87.9854 755.958 89.1023 755.489 89.9258 754.653C90.7493 753.818 91.2119 752.684 91.2119 751.503Z" fill="white"></path> <path opacity="0.3" d="M94.3838 702.49C94.3838 701.609 94.1263 700.747 93.6438 700.014C93.1613 699.282 92.4755 698.711 91.6731 698.373C90.8707 698.036 89.9878 697.948 89.136 698.12C88.2842 698.292 87.5018 698.716 86.8877 699.339C86.2736 699.962 85.8554 700.756 85.6859 701.621C85.5165 702.485 85.6035 703.381 85.9358 704.195C86.2682 705.009 86.831 705.705 87.5531 706.195C88.2752 706.684 89.1242 706.946 89.9927 706.946C90.5694 706.946 91.1404 706.83 91.6731 706.607C92.2059 706.383 92.6899 706.054 93.0977 705.641C93.5054 705.227 93.8289 704.736 94.0496 704.195C94.2702 703.655 94.3838 703.075 94.3838 702.49Z" fill="white"></path> <path opacity="0.3" d="M83.6606 804.966C84.5291 804.966 85.378 804.705 86.1001 804.215C86.8222 803.726 87.3851 803.03 87.7174 802.216C88.0498 801.401 88.1367 800.506 87.9673 799.641C87.7979 798.777 87.3797 797.983 86.7656 797.36C86.1514 796.737 85.369 796.312 84.5173 796.14C83.6655 795.968 82.7826 796.057 81.9802 796.394C81.1778 796.731 80.4921 797.302 80.0096 798.035C79.5271 798.768 79.2695 799.629 79.2695 800.511C79.2695 801.692 79.7322 802.826 80.5556 803.661C81.3791 804.497 82.496 804.966 83.6606 804.966Z" fill="white"></path> <path opacity="0.3" d="M113.895 804.966C114.763 804.966 115.612 804.705 116.335 804.215C117.057 803.726 117.619 803.03 117.952 802.216C118.284 801.401 118.371 800.506 118.202 799.641C118.032 798.777 117.614 797.983 117 797.36C116.386 796.737 115.603 796.312 114.752 796.14C113.9 795.968 113.017 796.057 112.215 796.394C111.412 796.731 110.726 797.302 110.244 798.035C109.761 798.768 109.504 799.629 109.504 800.511C109.504 801.692 109.967 802.826 110.79 803.661C111.613 804.497 112.73 804.966 113.895 804.966Z" fill="white"></path> <path opacity="0.3" d="M105.102 732.49C107.527 732.49 109.493 730.495 109.493 728.034C109.493 725.573 107.527 723.578 105.102 723.578C102.677 723.578 100.711 725.573 100.711 728.034C100.711 730.495 102.677 732.49 105.102 732.49Z" fill="white"></path> <path opacity="0.3" d="M106.329 777.048C106.329 776.166 106.072 775.305 105.589 774.572C105.107 773.839 104.421 773.268 103.618 772.931C102.816 772.594 101.933 772.505 101.081 772.677C100.23 772.849 99.4471 773.274 98.833 773.897C98.2189 774.52 97.8007 775.314 97.6312 776.178C97.4618 777.043 97.5488 777.939 97.8811 778.753C98.2135 779.567 98.7763 780.263 99.4984 780.752C100.221 781.242 101.07 781.503 101.938 781.503C103.103 781.503 104.22 781.034 105.043 780.198C105.866 779.363 106.329 778.229 106.329 777.048Z" fill="white"></path> <path opacity="0.3" d="M98.77 830.509C99.6385 830.509 100.488 830.248 101.21 829.758C101.932 829.269 102.495 828.573 102.827 827.759C103.159 826.944 103.246 826.048 103.077 825.184C102.907 824.32 102.489 823.526 101.875 822.903C101.261 822.28 100.479 821.855 99.6267 821.683C98.7749 821.511 97.892 821.6 97.0896 821.937C96.2873 822.274 95.6015 822.845 95.1189 823.578C94.6364 824.311 94.3789 825.172 94.3789 826.053C94.3789 827.235 94.8415 828.369 95.665 829.204C96.4885 830.04 97.6054 830.509 98.77 830.509Z" fill="white"></path> </g> <defs> <radialGradient id="paint0_radial_2105_16212" cx="0" cy="0" r="1" gradientUnits="userSpaceOnUse" gradientTransform="translate(1803 1058) rotate(90) scale(305)"> <stop offset="0.492708" stop-color="white" stop-opacity="0"></stop> <stop offset="1" stop-color="white"></stop> </radialGradient> <radialGradient id="paint1_radial_2105_16212" cx="0" cy="0" r="1" gradientUnits="userSpaceOnUse" gradientTransform="translate(10.5 482.5) rotate(90) scale(217.5)"> <stop offset="0.492708" stop-color="white" stop-opacity="0"></stop> <stop offset="1" stop-color="white"></stop> </radialGradient> <clipPath id="clip0_2105_16212"> <rect width="1920" height="1154" fill="white"></rect> </clipPath> </defs> </svg> 